PathFileType	4	(X/Y/Z)	C:/Users/beibeiliu/ov580/test_trc/User1\sequence.26_training_dense_left.trc
DataRate	CameraRate	NumFrames	NumMarkers	Units	OrigDataRate	OrigDataStartFrame	OrigNumFrames
120	120	23	19	mm	120	42	330
Frame#	Time	ThumbCMC			ThumbMCP			ThumbIP			ThumbTip			IndexMCP			IndexPIP			IndexTip			MiddleMCP			MiddlePIP			MiddleTip			RingMCP			RingPIP			RingTip			PinkyMCP			PinkyPIP			PinkyTip			BackHand1			BackHand2			BackHand3	
		X0	Y0	Z0	X1	Y1	Z1	X2	Y2	Z2	X3	Y3	Z3	X4	Y4	Z4	X5	Y5	Z5	X6	Y6	Z6	X7	Y7	Z7	X8	Y8	Z8	X9	Y9	Z9	X10	Y10	Z10	X11	Y11	Z11	X12	Y12	Z12	X13	Y13	Z13	X14	Y14	Z14	X15	Y15	Z15	X16	Y16	Z16	X17	Y17	Z17	X18	Y18	Z18	
41	0.341667	-188.129	7.1904	37.7712	-168.29	31.3921	15.9712	-138.717	29.4873	-6.16886	-113.908	13.5153	-3.78813	-160.023	-8.61038	-42.9628	-147.665	-2.91139	-63.1588	-127.524	1.51506	-82.5553	-138.346	-26.6378	-46.6587	-127.048	-16.6935	-68.6521	-107.728	-8.84412	-91.2312	-109.398	-20.1173	-19.9095	-101.886	9.87357	-4.80129	-121.663	5.11004	23.2754	-97.4557	-27.1144	2.27513	-99.2343	-1.74796	18.9838	-125.712	-5.68686	41.5948	-148.832	-53.8262	17.2101	-163.186	-55.9017	50.2276	-183.705	-33.8151	28.165	
42	0.35	-182.438	5.16539	35.8082	-166.018	32.6599	12.0504	-137.212	23.8098	-4.53686	-113.725	13.1311	-3.12002	-160.905	-9.99314	-43.6509	-144.514	-3.84907	-66.9482	-126.126	1.73218	-88.2624	-136.798	-27.3605	-47.7107	-124.084	-19.8999	-69.2646	-109.125	-8.04457	-95.4701	-108.187	-21.1024	-19.274	-97.3778	6.50996	-0.708499	-119.416	2.49577	23.9818	-96.1795	-28.5852	2.21268	-98.3814	-2.65888	17.9618	-124.405	-5.82092	37.819	-148.1	-54.9398	19.698	-159.608	-57.4509	52.5158	-180.196	-35.4354	28.7818	
43	0.358333	-183.224	3.91599	37.14	-164.712	27.0469	12.2918	-139.735	25.8243	-4.00091	-110.135	10.4471	-4.89198	-155.676	-15.4356	-44.2153	-147.902	-7.53782	-64.9636	-129.382	-4.07171	-84.9915	-136.809	-31.8342	-43.8816	-126.398	-20.3666	-71.3943	-109.412	-12.949	-92.5283	-107.362	-19.55	-20.9781	-97.7254	5.5418	-4.92488	-117.07	-0.967865	25.2195	-97.6872	-26.9965	-0.193391	-97.5137	-4.09417	16.897	-122.217	-6.00886	36.5516	-147.097	-55.9921	16.8437	-155.909	-61.6419	53.4734	-180.393	-36.5492	29.4367	
44	0.366667	-180.481	0.656751	39.6126	-164.132	29.4196	11.1526	-136.582	24.6239	-10.2356	-113.291	8.79763	-6.34125	-159.842	-14.9658	-43.0714	-148.197	-10.892	-64.6071	-128.945	-6.58527	-87.8068	-141.19	-31.2791	-43.8741	-127.414	-23.8571	-67.0194	-112.459	-14.5432	-93.9906	-106.872	-21.2238	-21.8171	-97.8404	3.97957	-6.42698	-117.053	-2.54515	24.0408	-99.5717	-32.6772	-0.405899	-98.3655	-5.24033	18.0134	-126.429	-10.4438	35.4132	-147.127	-56.824	19.1511	-159.671	-58.613	51.6066	-181.377	-37.312	25.7751	
45	0.375	-180.961	2.75714	37.5005	-162.153	27.1808	9.85875	-138.569	23.1683	-5.43638	-113.437	12.0727	-8.54044	-162.2	-15.3374	-44.1452	-150.207	-9.66283	-67.3628	-133.524	-6.93207	-88.454	-142.26	-31.5387	-47.2771	-126.861	-24.9917	-71.3744	-115.122	-17.3255	-94.0302	-113.79	-22.8325	-24.0186	-100.528	2.62526	-8.5128	-120.095	-4.16478	23.2707	-98.4809	-30.4057	-1.63233	-97.2287	-7.56615	16.1458	-123.017	-8.84835	35.3043	-146.535	-59.8571	20.2923	-162.227	-60.4144	53.7227	-181.405	-37.5007	29.0152	
46	0.383333	-182.956	3.46675	35.1349	-163.113	29.0066	10.1415	-139.419	22.719	-7.89302	-114.255	4.87979	-8.43568	-165.549	-16.1945	-43.1939	-153.589	-13.3251	-64.564	-134.993	-11.7315	-87.2763	-147.324	-32.4009	-47.8228	-133.472	-25.1934	-73.4509	-118.281	-19.6038	-94.6401	-112.148	-28.6682	-23.1638	-102.331	1.88961	-9.51509	-116.881	-4.50528	21.6269	-100.115	-32.2946	-2.99563	-99.2354	-9.33222	10.0439	-121.987	-10.6022	33.1653	-152.04	-58.1848	17.5784	-161.798	-60.5791	54.4078	-183.564	-36.3645	28.6995	
47	0.391667	-182.54	6.48042	37.0777	-161.528	25.2854	11.3323	-137.88	23.3856	-12.4576	-112.035	7.85724	-13.7474	-166.96	-15.4146	-46.3158	-157.724	-11.1993	-64.8704	-142.662	-10.5377	-89.7421	-150.536	-34.62	-45.2374	-136.555	-29.3244	-71.2208	-124.108	-21.59	-97.2497	-114.006	-27.2134	-25.7598	-103.513	-1.39403	-11.72	-118.771	-5.49357	20.4089	-106.268	-37.0789	-4.61618	-100.307	-12.0031	11.0261	-124.675	-13.0238	33.2136	-153.881	-57.7235	20.681	-166.649	-59.6298	50.3732	-186.563	-35.6722	28.6552	
48	0.4	-182.166	7.87708	40.3047	-161.016	27.7265	12.4277	-138.494	25.043	-12.5203	-115.924	3.88565	-13.0827	-171.221	-14.3733	-44.5486	-159.598	-13.2475	-66.7892	-146.001	-13.0865	-89.6623	-153.569	-35.1736	-45.6504	-143.886	-26.9647	-73.4432	-130.239	-22.1917	-100.427	-123.254	-30.1691	-26.4489	-102.079	-5.91681	-11.7498	-123.661	-5.19237	16.6542	-106.09	-38.4623	-5.96935	-103.349	-13.1049	9.69519	-123.327	-10.8409	30.4033	-158.423	-58.9435	20.2341	-167.884	-58.4404	49.9166	-186.429	-35.6051	30.9763	
49	0.408333	-181.662	14.1133	35.9225	-159.648	29.0712	11.3225	-138.745	22.9219	-11.4521	-115.134	3.06146	-17.8234	-173.122	-11.9986	-46.6923	-163.087	-9.78477	-69.941	-151.346	-10.8016	-90.9035	-159.836	-33.433	-48.3431	-148.096	-29.5291	-72.8327	-133.474	-29.4777	-101.946	-124.787	-33.1227	-29.6114	-105.804	-7.33857	-15.641	-118.809	-7.42856	15.3004	-117.911	-43.8571	-8.2073	-105.898	-17.7353	3.07031	-123.105	-11.193	32.1517	-165.408	-56.672	16.4396	-173.872	-53.0036	51.2257	-190.406	-29.3393	29.3051	
50	0.416667	-177.68	17.6692	41.1368	-155.022	31.5792	9.05711	-136.27	22.0671	-11.9009	-113.765	1.73724	-22.0007	-177.436	-5.41878	-42.2037	-165.609	-10.2878	-69.2139	-156.411	-9.46555	-90.4752	-164.189	-30.8676	-47.7001	-153.913	-28.9394	-74.0101	-141.881	-30.2656	-99.2654	-132.013	-34.3145	-30.3544	-105.615	-12.7755	-16.3795	-121.073	-9.49572	14.7917	-118.36	-44.1857	-9.75951	-103.689	-23.2202	2.46493	-122.365	-10.9285	26.85	-171.359	-52.8166	18.3667	-178.531	-52.9264	50.5621	-192.906	-24.0935	29.3843	
51	0.425	-172.818	21.8454	41.2297	-148.825	35.6428	9.09891	-133.329	19.9893	-12.7225	-115.001	-5.83367	-23.3235	-177.981	-4.28626	-43.9932	-168.876	-6.41305	-68.8956	-157.365	-11.4312	-93.9846	-169.228	-27.7504	-47.4758	-161.669	-25.1514	-71.5722	-148.295	-31.4713	-104.394	-136.345	-33.1003	-31.635	-109.314	-14.4686	-19.3376	-118.205	-13.2242	11.9261	-124.43	-50.7221	-9.85366	-108.493	-25.5657	3.45764	-126.79	-15.1221	25.3862	-176.441	-47.5244	16.676	-180.942	-49.0187	52.2047	-195.414	-15.8724	29.168	
52	0.433333	-169.128	20.0581	38.5967	-145.678	32.601	10.8283	-130.791	16.3701	-19.9779	-117.509	-9.79183	-23.5578	-178.941	-2.91083	-42.1488	-171.288	-5.56963	-67.515	-159.797	-10.9771	-93.5133	-172.363	-27.1109	-51.3199	-166.374	-23.5592	-72.6966	-156.402	-25.2552	-102.978	-139.306	-39.0118	-29.9793	-111.562	-19.5638	-20.7028	-121.526	-15.7237	12.2553	-128.874	-51.6518	-10.4139	-111.814	-29.6088	3.42029	-127.666	-17.3753	30.6578	-179.367	-43.9805	15.6253	-185.599	-46.1949	54.6864	-195.02	-10.8008	27.9803	
53	0.441667	-162.553	24.9194	41.0824	-139.886	31.5455	5.34586	-127.539	15.0857	-20.2393	-119.338	-11.9707	-23.2767	-179.698	3.22088	-41.228	-173.121	0.431431	-68.5656	-165.396	-4.26736	-91.0343	-176.706	-17.9164	-51.2816	-169.958	-20.3171	-76.5532	-162.585	-24.9417	-103.547	-143.405	-33.3083	-33.1834	-114.198	-25.1273	-21.4679	-121.54	-15.9868	9.26599	-136.878	-50.5758	-13.5133	-116.52	-32.2703	0.121067	-128.052	-18.1235	25.7755	-185.491	-42.6376	19.2615	-188.882	-39.357	52.3873	-193.888	-3.22252	28.6332	
54	0.45	-155.679	26.1937	36.917	-132.885	29.3392	7.68473	-124.765	12.1744	-19.7996	-121.357	-16.3149	-23.8559	-178.8	8.32341	-41.3024	-175.304	4.40127	-70.7719	-169.931	-1.75414	-91.3293	-180.589	-17.5604	-48.6029	-173.746	-16.0649	-76.7705	-169.957	-20.4162	-104.804	-148.822	-38.5131	-32.0303	-116.574	-31.8016	-19.4801	-125.438	-20.6387	8.52592	-141.217	-52.1634	-14.1513	-120.513	-38.1426	-0.447447	-132.469	-22.0777	23.8098	-189.522	-35.8076	17.3093	-188.538	-34.7849	54.1745	-188.325	3.12965	31.3426	
55	0.458333	-147.201	23.8032	38.6285	-124.947	25.8484	4.7772	-122.688	7.12429	-17.9701	-122.092	-23.4056	-27.6056	-177.149	12.5019	-37.743	-175.188	7.43912	-66.445	-173.445	0.067111	-91.2718	-183.135	-9.11798	-47.1059	-179.059	-10.4628	-75.0684	-176.927	-19.3855	-99.6507	-157.122	-34.1971	-32.8541	-120.755	-35.1934	-20.7083	-127.968	-24.8893	7.72822	-150.568	-54.5476	-14.3467	-126.774	-42.5506	-3.64822	-135.318	-25.5991	27.01	-190.38	-25.4622	19.1511	-190.392	-23.6186	53.0905	-185.864	9.01122	35.9139	
56	0.466667	-139.49	24.6494	37.9073	-117.514	22.7059	5.013	-117.492	4.95337	-21.3625	-122.968	-25.5022	-27.8797	-173.813	19.087	-38.5535	-173.59	14.4619	-64.1072	-174.219	6.9972	-87.6173	-184.491	-3.63846	-47.0284	-181.81	-8.54376	-74.2324	-181.963	-16.8234	-102.02	-161.844	-32.9063	-32.06	-126.861	-39.3291	-22.1855	-131.957	-25.5096	7.49851	-160.871	-50.6335	-13.4153	-132.615	-46.1032	-4.2829	-135.981	-27.8269	25.6603	-193.97	-21.8041	17.3364	-191.874	-19.9694	57.83	-178.15	15.0922	33.5299	
57	0.475	-132.296	19.6162	43.3802	-112.734	17.0994	9.60275	-118.436	-1.2397	-17.8141	-126.928	-26.0622	-23.9122	-167.991	22.8481	-38.447	-171.612	16.3835	-62.6251	-172.96	10.4884	-88.1079	-184.207	1.64536	-44.0525	-182.574	-1.73724	-67.8101	-183.03	-9.17554	-101.668	-161.094	-30.7572	-34.8837	-130.148	-39.725	-26.2121	-131.395	-30.6542	4.02551	-164.089	-50.0794	-12.8553	-134.549	-49.1044	0.303167	-135.111	-29.876	26.2792	-191.062	-16.5706	21.6234	-188.049	-11.3581	57.3292	-173.646	16.8299	38.3853	
58	0.483333	-124.084	19.5776	45.231	-107.685	12.2544	10.5569	-111.406	-1.38065	-15.3704	-127.692	-27.9868	-24.8015	-162.364	26.6925	-33.0351	-166.065	22.4299	-58.911	-169.687	15.8358	-88.8584	-180.386	7.54541	-39.8261	-179.385	5.24214	-71.8938	-181.18	1.01629	-100.726	-165.377	-26.6274	-32.8988	-133.725	-41.42	-26.3261	-132.051	-32.8438	3.18077	-166.334	-47.8337	-13.2957	-138.575	-47.9252	-2.33288	-139.045	-28.8311	26.927	-187.841	-7.0569	19.9661	-186.422	-10.5424	59.1197	-169.266	18.9488	38.4811	
59	0.491667	-117.935	16.031	47.4276	-102.294	8.11172	11.7665	-108.531	-4.90361	-14.542	-127.733	-28.071	-21.2165	-154.728	31.45	-35.7765	-157.183	29.8364	-62.0279	-162.687	20.8989	-83.044	-176.005	12.4558	-42.2368	-174.039	12.3199	-66.7177	-178.105	5.16832	-96.6396	-162.365	-24.7599	-34.6499	-132.993	-39.6122	-26.4093	-134.286	-32.9268	7.68111	-169.047	-42.9777	-12.1274	-139.534	-48.3793	2.22984	-140.317	-30.5207	24.6718	-188.116	-6.54247	24.8103	-186.179	-7.14434	58.9688	-160.777	23.6076	40.145	
60	0.5	-113.532	12.966	49.2977	-98.2674	5.03785	14.4433	-106.473	-7.6948	-17.0037	-126.424	-26.7988	-20.906	-147.261	31.8223	-28.1716	-152.24	30.7788	-55.9055	-158.109	25.3319	-85.6378	-167.211	21.0929	-39.8301	-168.614	17.5793	-64.5959	-170.607	17.6845	-98.4934	-162.239	-20.2516	-34.0176	-136.488	-42.0801	-27.2312	-132.198	-34.5171	3.59259	-168.279	-38.0203	-13.4849	-143.171	-49.6126	-0.866172	-137.826	-32.9509	26.9038	-182.721	1.47837	21.0951	-180.875	-2.4674	60.9099	-157.799	20.1192	41.1526	
61	0.508333	-109.585	9.43615	48.9918	-92.9442	0.357581	14.5706	-101.101	-10.7617	-13.6868	-126.64	-30.8737	-23.6976	-143.173	31.7779	-26.948	-147.198	33.0064	-55.6528	-148.911	31.779	-82.6471	-162.658	23.2444	-40.2801	-164.669	21.7415	-67.7575	-166.34	22.0274	-97.1795	-163.565	-19.0897	-32.2984	-136.899	-40.806	-28.3852	-136.39	-36.3993	6.04429	-169.898	-39.4504	-14.289	-143.826	-48.6099	-0.889243	-139.154	-31.1653	24.5715	-180.973	3.46631	21.1254	-178.924	-0.188021	57.7295	-149.639	24.9053	44.7915	
62	0.516667	-107.209	5.06991	51.3336	-92.4828	-3.19316	13.6685	-100.789	-13.2494	-10.1591	-127.351	-29.9236	-21.7393	-137.266	34.0726	-28.4279	-140.43	35.8047	-52.6161	-146.209	31.8627	-82.581	-158.407	25.7672	-36.4454	-158.106	27.3082	-66.7171	-164.47	25.3508	-93.89	-160.803	-16.6904	-33.1034	-137.358	-39.0653	-29.9145	-136.503	-34.8273	6.57677	-170.597	-34.3826	-13.9019	-145.866	-48.5682	-1.74652	-138.127	-32.8123	27.67	-176.758	7.99418	27.7893	-174.39	2.48971	60.3207	-146.441	22.8167	44.9565	
63	0.525	-106.826	2.28112	51.4484	-90.2174	-5.87502	16.2581	-101.1	-14.3753	-10.1947	-126.49	-29.8983	-20.7291	-132.469	34.3765	-25.708	-136.34	36.7881	-53.8854	-140.148	35.4437	-80.9974	-156.587	27.7838	-36.3113	-155.415	30.0267	-61.8467	-157.093	30.9201	-93.1799	-160.34	-10.7402	-30.938	-137.562	-37.6278	-29.4284	-137.194	-36.129	3.89344	-170.642	-28.4242	-14.1196	-147.5	-48.2001	-3.67036	-137.075	-30.4518	24.2194	-173.088	9.65316	27.278	-178.285	2.15636	62.9459	-143.597	24.6844	44.9105	
